<?xml version="1.0" encoding="utf-8"?>
<!-- Generator: Adobe Illustrator 21.0.2, SVG Export Plug-In . SVG Version: 6.00 Build 0)  -->
<svg version="1.1" id="Layer_1" xmlns="http://www.w3.org/2000/svg" xmlns:xlink="http://www.w3.org/1999/xlink" x="0px" y="0px"
	 viewBox="0 0 792 612" style="enable-background:new 0 0 792 612;" xml:space="preserve">
<style type="text/css">
	.st0{fill:#FF005C;}
	.st1{fill:#6AFFCB;}
	.st2{fill:#666666;}
	.st3{fill:#808080;}
	.st4{fill:#00456A;}
	.st5{fill:#999999;}
</style>
<g>
	<g>
		<polygon class="st0" points="481.7,322.6 517.8,362.5 493.4,399.8 457.3,359.9 		"/>
	</g>
	<g>
		<polygon class="st1" points="493.4,399.8 451.7,416.9 415.5,377 457.3,359.9 		"/>
	</g>
	<g>
		<polygon class="st2" points="457.3,359.9 415.5,377 439.9,339.7 481.7,322.6 		"/>
	</g>
</g>
<g>
	<g>
		<polygon class="st0" points="446.1,283.3 482.3,323.2 457.9,360.6 421.7,320.7 		"/>
	</g>
	<g>
		<polygon class="st1" points="457.9,360.6 416.1,377.6 380,337.7 421.7,320.7 		"/>
	</g>
	<g>
		<polygon class="st2" points="421.7,320.7 380,337.7 404.4,300.4 446.1,283.3 		"/>
	</g>
</g>
<g>
	<g>
		<polygon class="st0" points="410.2,243.6 446.3,283.5 421.9,320.9 385.8,280.9 		"/>
	</g>
	<g>
		<polygon class="st3" points="421.9,320.9 380.2,337.9 344,298 385.8,280.9 		"/>
	</g>
	<g>
		<polygon class="st2" points="385.8,280.9 344,298 368.4,260.7 410.2,243.6 		"/>
	</g>
</g>
<g>
	<g>
		<polygon class="st0" points="374.7,204.5 410.8,244.4 386.4,281.7 350.3,241.8 		"/>
	</g>
	<g>
		<polygon class="st1" points="386.4,281.7 344.7,298.8 308.5,258.9 350.3,241.8 		"/>
	</g>
	<g>
		<polygon class="st2" points="350.3,241.8 308.5,258.9 332.9,221.6 374.7,204.5 		"/>
	</g>
</g>
<g>
	<g>
		<polygon class="st0" points="339.8,165.9 376,205.9 351.6,243.2 315.4,203.3 		"/>
	</g>
	<g>
		<polygon class="st1" points="351.6,243.2 309.8,260.3 273.7,220.3 315.4,203.3 		"/>
	</g>
	<g>
		<polygon class="st4" points="315.4,203.3 273.7,220.3 298.1,183 339.8,165.9 		"/>
	</g>
</g>
<g>
	<g>
		<polygon class="st0" points="386.2,280.6 422.3,320.5 397.1,358.5 361,318.6 		"/>
	</g>
	<g>
		<polygon class="st3" points="397.1,358.5 354.6,376.3 318.5,336.4 361,318.6 		"/>
	</g>
	<g>
		<polygon class="st4" points="361,318.6 318.5,336.4 343.7,298.3 386.2,280.6 		"/>
	</g>
</g>
<g>
	<g>
		<polygon class="st0" points="380.3,289.5 416.4,329.4 391.2,367.4 355.1,327.5 		"/>
	</g>
	<g>
		<polygon class="st3" points="391.2,367.4 348.8,385.2 312.6,345.3 355.1,327.5 		"/>
	</g>
	<g>
		<polygon class="st4" points="355.1,327.5 312.6,345.3 337.8,307.2 380.3,289.5 		"/>
	</g>
</g>
<g>
	<g>
		<polygon class="st5" points="425.7,404.9 461.9,444.8 436.7,482.8 400.6,442.9 		"/>
	</g>
	<g>
		<polygon class="st1" points="436.7,482.8 394.2,500.6 358.1,460.7 400.6,442.9 		"/>
	</g>
	<g>
		<polygon class="st2" points="400.6,442.9 358.1,460.7 383.3,422.6 425.7,404.9 		"/>
	</g>
</g>
<g>
	<g>
		<polygon class="st0" points="391.9,367.6 428.1,407.5 402.9,445.6 366.8,405.6 		"/>
	</g>
	<g>
		<polygon class="st1" points="402.9,445.6 360.4,463.3 324.3,423.4 366.8,405.6 		"/>
	</g>
	<g>
		<polygon class="st2" points="366.8,405.6 324.3,423.4 349.5,385.4 391.9,367.6 		"/>
	</g>
</g>
<g>
	<g>
		<polygon class="st0" points="356.5,328.6 392.7,368.5 367.5,406.5 331.4,366.6 		"/>
	</g>
	<g>
		<polygon class="st1" points="367.5,406.5 325,424.3 288.9,384.4 331.4,366.6 		"/>
	</g>
	<g>
		<polygon class="st2" points="331.4,366.6 288.9,384.4 314,346.3 356.5,328.6 		"/>
	</g>
</g>
<g>
	<g>
		<polygon class="st0" points="321.7,290.2 357.8,330.1 332.7,368.2 296.5,328.3 		"/>
	</g>
	<g>
		<polygon class="st1" points="332.7,368.2 290.2,385.9 254,346 296.5,328.3 		"/>
	</g>
	<g>
		<polygon class="st4" points="296.5,328.3 254,346 279.2,308 321.7,290.2 		"/>
	</g>
</g>
<g>
	<g>
		<polygon class="st5" points="468.2,387.2 504.3,427.1 479.2,465.1 443,425.2 		"/>
	</g>
	<g>
		<polygon class="st1" points="479.2,465.1 436.7,482.9 400.5,443 443,425.2 		"/>
	</g>
	<g>
		<polygon class="st4" points="443,425.2 400.5,443 425.7,404.9 468.2,387.2 		"/>
	</g>
</g>
<g>
	<g>
		<polygon class="st0" points="510.2,369.9 546.3,409.8 521.1,447.8 485,407.9 		"/>
	</g>
	<g>
		<polygon class="st1" points="521.1,447.8 478.7,465.6 442.5,425.7 485,407.9 		"/>
	</g>
	<g>
		<polygon class="st4" points="485,407.9 442.5,425.7 467.7,387.6 510.2,369.9 		"/>
	</g>
</g>
<g>
	<g>
		<polygon class="st0" points="286.2,251.1 322.4,291 297.2,329.1 261,289.1 		"/>
	</g>
	<g>
		<polygon class="st1" points="297.2,329.1 254.7,346.8 218.6,306.9 261,289.1 		"/>
	</g>
	<g>
		<polygon class="st4" points="261,289.1 218.6,306.9 243.7,268.9 286.2,251.1 		"/>
	</g>
</g>
</svg>
