<?xml version="1.0" encoding="utf-8"?>
<!-- Generator: Adobe Illustrator 21.0.2, SVG Export Plug-In . SVG Version: 6.00 Build 0)  -->
<svg version="1.1" id="Layer_1" xmlns="http://www.w3.org/2000/svg" xmlns:xlink="http://www.w3.org/1999/xlink" x="0px" y="0px"
	 viewBox="0 0 792 612" style="enable-background:new 0 0 792 612;" xml:space="preserve">
<style type="text/css">
	.st0{fill:#FF005C;}
	.st1{fill:#6AFFCB;}
	.st2{fill:#666666;}
	.st3{fill:#808080;}
	.st4{fill:#00456A;}
	.st5{fill:#999999;}
</style>
<g>
	<g>
		<polygon class="st0" points="505.8,310.1 505.1,371.7 455.6,384 456.3,322.4 		"/>
	</g>
	<g>
		<polygon class="st1" points="455.6,384 407.3,365.9 408,304.3 456.3,322.4 		"/>
	</g>
	<g>
		<polygon class="st2" points="456.3,322.4 408,304.3 457.5,291.9 505.8,310.1 		"/>
	</g>
</g>
<g>
	<g>
		<polygon class="st0" points="506.5,249.4 505.8,311.1 456.3,323.4 457,261.8 		"/>
	</g>
	<g>
		<polygon class="st1" points="456.3,323.4 408,305.3 408.7,243.6 457,261.8 		"/>
	</g>
	<g>
		<polygon class="st2" points="457,261.8 408.7,243.6 458.2,231.3 506.5,249.4 		"/>
	</g>
</g>
<g>
	<g>
		<polygon class="st0" points="507.2,188.1 506.6,249.7 457,262.1 457.7,200.5 		"/>
	</g>
	<g>
		<polygon class="st3" points="457,262.1 408.7,243.9 409.4,182.3 457.7,200.5 		"/>
	</g>
	<g>
		<polygon class="st2" points="457.7,200.5 409.4,182.3 458.9,170 507.2,188.1 		"/>
	</g>
</g>
<g>
	<g>
		<polygon class="st0" points="507.9,127.7 507.2,189.3 457.6,201.6 458.3,140 		"/>
	</g>
	<g>
		<polygon class="st1" points="457.6,201.6 409.3,183.5 410,121.9 458.3,140 		"/>
	</g>
	<g>
		<polygon class="st2" points="458.3,140 410,121.9 459.5,109.5 507.9,127.7 		"/>
	</g>
</g>
<g>
	<g>
		<polygon class="st0" points="508.6,68.2 507.9,129.8 458.4,142.2 459.1,80.5 		"/>
	</g>
	<g>
		<polygon class="st1" points="458.4,142.2 410.1,124 410.8,62.4 459.1,80.5 		"/>
	</g>
	<g>
		<polygon class="st4" points="459.1,80.5 410.8,62.4 460.3,50 508.6,68.2 		"/>
	</g>
</g>
<g>
	<g>
		<polygon class="st0" points="458.3,200.5 457.6,262.1 406.9,274.4 407.6,212.8 		"/>
	</g>
	<g>
		<polygon class="st3" points="406.9,274.4 357.4,256.3 358.1,194.7 407.6,212.8 		"/>
	</g>
	<g>
		<polygon class="st4" points="407.6,212.8 358.1,194.7 408.8,182.3 458.3,200.5 		"/>
	</g>
</g>
<g>
	<g>
		<polygon class="st0" points="446.5,203.4 445.7,265 395,277.3 395.7,215.7 		"/>
	</g>
	<g>
		<polygon class="st3" points="395,277.3 345.5,259.2 346.3,197.6 395.7,215.7 		"/>
	</g>
	<g>
		<polygon class="st4" points="395.7,215.7 346.3,197.6 397,185.2 446.5,203.4 		"/>
	</g>
</g>
<g>
	<g>
		<polygon class="st5" points="394.9,335.6 394.2,397.2 343.4,409.6 344.1,348 		"/>
	</g>
	<g>
		<polygon class="st1" points="343.4,409.6 293.9,391.4 294.7,329.8 344.1,348 		"/>
	</g>
	<g>
		<polygon class="st2" points="344.1,348 294.7,329.8 345.4,317.5 394.9,335.6 		"/>
	</g>
</g>
<g>
	<g>
		<polygon class="st0" points="395.5,278 394.8,339.7 344.1,352 344.8,290.4 		"/>
	</g>
	<g>
		<polygon class="st1" points="344.1,352 294.6,333.9 295.3,272.2 344.8,290.4 		"/>
	</g>
	<g>
		<polygon class="st2" points="344.8,290.4 295.3,272.2 346,259.9 395.5,278 		"/>
	</g>
</g>
<g>
	<g>
		<polygon class="st0" points="396.1,217.7 395.4,279.3 344.7,291.7 345.4,230.1 		"/>
	</g>
	<g>
		<polygon class="st1" points="344.7,291.7 295.2,273.5 295.9,211.9 345.4,230.1 		"/>
	</g>
	<g>
		<polygon class="st2" points="345.4,230.1 295.9,211.9 346.6,199.6 396.1,217.7 		"/>
	</g>
</g>
<g>
	<g>
		<polygon class="st0" points="396.7,158.4 396,220 345.3,232.4 346,170.7 		"/>
	</g>
	<g>
		<polygon class="st1" points="345.3,232.4 295.8,214.2 296.5,152.6 346,170.7 		"/>
	</g>
	<g>
		<polygon class="st4" points="346,170.7 296.5,152.6 347.2,140.2 396.7,158.4 		"/>
	</g>
</g>
<g>
	<g>
		<polygon class="st5" points="444.3,353.8 443.5,415.4 392.8,427.7 393.5,366.1 		"/>
	</g>
	<g>
		<polygon class="st1" points="392.8,427.7 343.3,409.6 344.1,348 393.5,366.1 		"/>
	</g>
	<g>
		<polygon class="st4" points="393.5,366.1 344.1,348 394.8,335.6 444.3,353.8 		"/>
	</g>
</g>
<g>
	<g>
		<polygon class="st0" points="493,371.9 492.3,433.5 441.5,445.9 442.2,384.3 		"/>
	</g>
	<g>
		<polygon class="st1" points="441.5,445.9 392,427.7 392.8,366.1 442.2,384.3 		"/>
	</g>
	<g>
		<polygon class="st4" points="442.2,384.3 392.8,366.1 443.5,353.8 493,371.9 		"/>
	</g>
</g>
<g>
	<g>
		<polygon class="st0" points="397.4,98 396.6,159.6 345.9,171.9 346.6,110.3 		"/>
	</g>
	<g>
		<polygon class="st1" points="345.9,171.9 296.4,153.8 297.1,92.2 346.6,110.3 		"/>
	</g>
	<g>
		<polygon class="st4" points="346.6,110.3 297.1,92.2 347.9,79.8 397.4,98 		"/>
	</g>
</g>
</svg>
